<svg width="91" height="27" viewBox="0 0 91 27" fill="none" xmlns="http://www.w3.org/2000/svg">
<path d="M0.426136 1.79403V0.272727H7.59375V1.79403H4.92188V9H3.09801V1.79403H0.426136ZM8.06037 11.4545V2.45455H9.85014V3.55398H9.93111C10.0107 3.37784 10.1257 3.19886 10.2763 3.01705C10.4297 2.83239 10.6286 2.67898 10.8729 2.55682C11.12 2.43182 11.4268 2.36932 11.7933 2.36932C12.2706 2.36932 12.7109 2.49432 13.1143 2.74432C13.5178 2.99148 13.8402 3.36506 14.0817 3.86506C14.3232 4.36222 14.4439 4.9858 14.4439 5.7358C14.4439 6.46591 14.326 7.08239 14.0902 7.58523C13.8572 8.08523 13.5391 8.46449 13.1357 8.72301C12.7351 8.97869 12.2862 9.10653 11.7891 9.10653C11.4368 9.10653 11.1371 9.0483 10.8899 8.93182C10.6456 8.81534 10.4453 8.66903 10.2891 8.4929C10.1328 8.31392 10.0135 8.13352 9.93111 7.9517H9.87571V11.4545H8.06037ZM9.83736 5.72727C9.83736 6.11648 9.89134 6.45597 9.99929 6.74574C10.1072 7.03551 10.2635 7.26136 10.468 7.4233C10.6726 7.58239 10.9212 7.66193 11.2138 7.66193C11.5092 7.66193 11.7592 7.58097 11.9638 7.41903C12.1683 7.25426 12.3232 7.02699 12.4283 6.73722C12.5362 6.4446 12.5902 6.10795 12.5902 5.72727C12.5902 5.34943 12.5376 5.01705 12.4325 4.73011C12.3274 4.44318 12.1726 4.21875 11.968 4.05682C11.7635 3.89489 11.5121 3.81392 11.2138 3.81392C10.9183 3.81392 10.6683 3.89205 10.4638 4.0483C10.2621 4.20455 10.1072 4.42614 9.99929 4.71307C9.89134 5 9.83736 5.33807 9.83736 5.72727ZM18.6371 9.12784C17.9638 9.12784 17.3842 8.99148 16.8984 8.71875C16.4155 8.44318 16.0433 8.05398 15.782 7.55114C15.5206 7.04545 15.3899 6.44744 15.3899 5.7571C15.3899 5.08381 15.5206 4.4929 15.782 3.98438C16.0433 3.47585 16.4112 3.07955 16.8857 2.79545C17.3629 2.51136 17.9226 2.36932 18.5646 2.36932C18.9964 2.36932 19.3984 2.43892 19.7706 2.57812C20.1456 2.71449 20.4723 2.92045 20.7507 3.19602C21.032 3.47159 21.2507 3.81818 21.407 4.2358C21.5632 4.65057 21.6413 5.13636 21.6413 5.69318V6.19176H16.1143V5.06676H19.9325C19.9325 4.8054 19.8757 4.57386 19.7621 4.37216C19.6484 4.17045 19.4908 4.01278 19.2891 3.89915C19.0902 3.78267 18.8587 3.72443 18.5945 3.72443C18.3189 3.72443 18.0746 3.78835 17.8615 3.91619C17.6513 4.04119 17.4865 4.21023 17.3672 4.4233C17.2479 4.63352 17.1868 4.8679 17.1839 5.12642V6.19602C17.1839 6.51989 17.2436 6.79972 17.3629 7.03551C17.4851 7.27131 17.657 7.45312 17.8786 7.58097C18.1001 7.70881 18.3629 7.77273 18.6669 7.77273C18.8686 7.77273 19.0533 7.74432 19.2209 7.6875C19.3885 7.63068 19.532 7.54545 19.6513 7.43182C19.7706 7.31818 19.8615 7.17898 19.924 7.0142L21.603 7.125C21.5178 7.52841 21.343 7.88068 21.0788 8.18182C20.8175 8.48011 20.4794 8.71307 20.0646 8.88068C19.6527 9.04545 19.1768 9.12784 18.6371 9.12784ZM22.321 3.8821V2.45455H28.2528V3.8821H26.1435V9H24.4134V3.8821H22.321ZM30.4911 4.46591H32.4471C33.3136 4.46591 33.9897 4.6733 34.4755 5.08807C34.9613 5.5 35.2042 6.05114 35.2042 6.74148C35.2042 7.19034 35.0948 7.58523 34.8761 7.92614C34.6573 8.2642 34.342 8.52841 33.93 8.71875C33.5181 8.90625 33.0238 9 32.4471 9H29.3533V2.45455H31.0877V7.57244H32.4471C32.7511 7.57244 33.0011 7.49574 33.1971 7.34233C33.3931 7.18892 33.4925 6.9929 33.4954 6.75426C33.4925 6.50142 33.3931 6.29545 33.1971 6.13636C33.0011 5.97443 32.7511 5.89347 32.4471 5.89347H30.4911V4.46591ZM40.2433 9V3.87784H39.016C38.6836 3.87784 38.4308 3.95455 38.2575 4.10795C38.0842 4.26136 37.9989 4.44318 38.0018 4.65341C37.9989 4.86648 38.0813 5.04687 38.2489 5.1946C38.4194 5.33949 38.6694 5.41193 38.9989 5.41193H40.8484V6.6392H38.9989C38.4393 6.6392 37.9549 6.55398 37.5458 6.38352C37.1367 6.21307 36.8214 5.97585 36.5998 5.67188C36.3782 5.36506 36.2688 5.00852 36.2717 4.60227C36.2688 4.17614 36.3782 3.80256 36.5998 3.48153C36.8214 3.15767 37.1381 2.90625 37.5501 2.72727C37.9648 2.54545 38.4535 2.45455 39.016 2.45455H41.935V9H40.2433ZM36.0842 9L37.9038 5.59091H39.6381L37.8228 9H36.0842ZM43.3455 9V2.45455H45.1609V4.99432H45.6722L47.4535 2.45455H49.5842L47.2702 5.7017L49.6097 9H47.4535L45.8384 6.67756H45.1609V9H43.3455ZM53.0646 9.12784C52.4027 9.12784 51.8303 8.98722 51.3473 8.70597C50.8672 8.42187 50.4964 8.02699 50.2351 7.52131C49.9737 7.01278 49.843 6.4233 49.843 5.75284C49.843 5.0767 49.9737 4.4858 50.2351 3.98011C50.4964 3.47159 50.8672 3.0767 51.3473 2.79545C51.8303 2.51136 52.4027 2.36932 53.0646 2.36932C53.7266 2.36932 54.2976 2.51136 54.7777 2.79545C55.2607 3.0767 55.6328 3.47159 55.8942 3.98011C56.1555 4.4858 56.2862 5.0767 56.2862 5.75284C56.2862 6.4233 56.1555 7.01278 55.8942 7.52131C55.6328 8.02699 55.2607 8.42187 54.7777 8.70597C54.2976 8.98722 53.7266 9.12784 53.0646 9.12784ZM53.0732 7.72159C53.3743 7.72159 53.6257 7.63636 53.8274 7.46591C54.0291 7.29261 54.1811 7.05682 54.2834 6.75852C54.3885 6.46023 54.4411 6.12074 54.4411 5.74006C54.4411 5.35938 54.3885 5.01989 54.2834 4.72159C54.1811 4.4233 54.0291 4.1875 53.8274 4.0142C53.6257 3.84091 53.3743 3.75426 53.0732 3.75426C52.7692 3.75426 52.5135 3.84091 52.3061 4.0142C52.1016 4.1875 51.9467 4.4233 51.8416 4.72159C51.7393 5.01989 51.6882 5.35938 51.6882 5.74006C51.6882 6.12074 51.7393 6.46023 51.8416 6.75852C51.9467 7.05682 52.1016 7.29261 52.3061 7.46591C52.5135 7.63636 52.7692 7.72159 53.0732 7.72159ZM57.4666 9V2.45455H60.2578C61.0646 2.45455 61.7024 2.60795 62.1712 2.91477C62.6399 3.22159 62.8743 3.65767 62.8743 4.22301C62.8743 4.57812 62.7422 4.87358 62.478 5.10938C62.2138 5.34517 61.8473 5.50426 61.3786 5.58665C61.7706 5.61506 62.1044 5.70455 62.38 5.85511C62.6584 6.00284 62.87 6.1946 63.0149 6.4304C63.1626 6.66619 63.2365 6.92756 63.2365 7.21449C63.2365 7.58665 63.1371 7.90625 62.9382 8.1733C62.7422 8.44034 62.4538 8.64489 62.0732 8.78693C61.6953 8.92898 61.2337 9 60.6882 9H57.4666ZM59.1584 7.64062H60.6882C60.9411 7.64062 61.1385 7.58097 61.2805 7.46165C61.4254 7.33949 61.4979 7.1733 61.4979 6.96307C61.4979 6.73011 61.4254 6.54687 61.2805 6.41335C61.1385 6.27983 60.9411 6.21307 60.6882 6.21307H59.1584V7.64062ZM59.1584 5.14773H60.2962C60.478 5.14773 60.6328 5.12216 60.7607 5.07102C60.8913 5.01705 60.9908 4.94034 61.0589 4.84091C61.13 4.74148 61.1655 4.62358 61.1655 4.48722C61.1655 4.28551 61.0845 4.12784 60.9226 4.0142C60.7607 3.90057 60.5391 3.84375 60.2578 3.84375H59.1584V5.14773ZM67.3381 9.12784C66.6676 9.12784 66.0909 8.9858 65.608 8.7017C65.1278 8.41477 64.7585 8.01705 64.5 7.50852C64.2443 7 64.1165 6.41477 64.1165 5.75284C64.1165 5.08239 64.2457 4.49432 64.5043 3.98864C64.7656 3.48011 65.1364 3.08381 65.6165 2.79972C66.0966 2.51278 66.6676 2.36932 67.3295 2.36932C67.9006 2.36932 68.4006 2.47301 68.8295 2.6804C69.2585 2.88778 69.598 3.17898 69.848 3.55398C70.098 3.92898 70.2358 4.36932 70.2614 4.875H68.5483C68.5 4.5483 68.3722 4.28551 68.1648 4.08665C67.9602 3.88494 67.6918 3.78409 67.3594 3.78409C67.0781 3.78409 66.8324 3.8608 66.6222 4.0142C66.4148 4.16477 66.2528 4.38494 66.1364 4.67472C66.0199 4.96449 65.9616 5.31534 65.9616 5.72727C65.9616 6.14489 66.0185 6.5 66.1321 6.79261C66.2486 7.08523 66.4119 7.30824 66.6222 7.46165C66.8324 7.61506 67.0781 7.69176 67.3594 7.69176C67.5668 7.69176 67.7528 7.64915 67.9176 7.56392C68.0852 7.47869 68.223 7.35511 68.331 7.19318C68.4418 7.02841 68.5142 6.83097 68.5483 6.60085H70.2614C70.233 7.10085 70.0966 7.54119 69.8523 7.92188C69.6108 8.29972 69.277 8.59517 68.8509 8.80824C68.4247 9.02131 67.9205 9.12784 67.3381 9.12784ZM71.4237 9V2.45455H73.239V4.99432H73.7504L75.5316 2.45455H77.6623L75.3484 5.7017L77.6879 9H75.5316L73.9165 6.67756H73.239V9H71.4237ZM80.3214 9.12358C79.9038 9.12358 79.5316 9.05114 79.2049 8.90625C78.8782 8.75852 78.6197 8.54119 78.4293 8.25426C78.2418 7.96449 78.1481 7.60369 78.1481 7.17188C78.1481 6.80824 78.2148 6.50284 78.3484 6.25568C78.4819 6.00852 78.6637 5.80966 78.8938 5.65909C79.1239 5.50852 79.3853 5.39489 79.6779 5.31818C79.9734 5.24148 80.283 5.1875 80.6069 5.15625C80.9876 5.11648 81.2944 5.07955 81.5273 5.04545C81.7603 5.00852 81.9293 4.95455 82.0344 4.88352C82.1396 4.8125 82.1921 4.70739 82.1921 4.56818V4.54261C82.1921 4.27273 82.1069 4.06392 81.9364 3.91619C81.7688 3.76847 81.5302 3.6946 81.2205 3.6946C80.8938 3.6946 80.6339 3.76705 80.4407 3.91193C80.2475 4.05398 80.1197 4.23295 80.0572 4.44886L78.3782 4.3125C78.4634 3.91477 78.631 3.57102 78.881 3.28125C79.131 2.98864 79.4535 2.7642 79.8484 2.60795C80.2461 2.44886 80.7063 2.36932 81.229 2.36932C81.5927 2.36932 81.9407 2.41193 82.2731 2.49716C82.6083 2.58239 82.9052 2.71449 83.1637 2.89347C83.4251 3.07244 83.631 3.30256 83.7816 3.58381C83.9322 3.86222 84.0075 4.19602 84.0075 4.58523V9H82.2859V8.09233H82.2347C82.1296 8.29688 81.989 8.47727 81.8129 8.63352C81.6367 8.78693 81.4251 8.90767 81.1779 8.99574C80.9308 9.08097 80.6452 9.12358 80.3214 9.12358ZM80.8413 7.87074C81.1083 7.87074 81.3441 7.81818 81.5487 7.71307C81.7532 7.60511 81.9137 7.46023 82.0302 7.27841C82.1467 7.09659 82.2049 6.89062 82.2049 6.66051V5.96591C82.1481 6.00284 82.07 6.03693 81.9705 6.06818C81.8739 6.09659 81.7646 6.12358 81.6424 6.14915C81.5202 6.17187 81.3981 6.19318 81.2759 6.21307C81.1538 6.23011 81.043 6.24574 80.9435 6.25994C80.7305 6.29119 80.5444 6.34091 80.3853 6.40909C80.2262 6.47727 80.1026 6.5696 80.0146 6.68608C79.9265 6.79972 79.8825 6.94176 79.8825 7.11222C79.8825 7.35938 79.9719 7.5483 80.1509 7.67898C80.3327 7.80682 80.5629 7.87074 80.8413 7.87074ZM89.2511 9V3.87784H88.0238C87.6914 3.87784 87.4386 3.95455 87.2653 4.10795C87.092 4.26136 87.0067 4.44318 87.0096 4.65341C87.0067 4.86648 87.0891 5.04687 87.2567 5.1946C87.4272 5.33949 87.6772 5.41193 88.0067 5.41193H89.8562V6.6392H88.0067C87.4471 6.6392 86.9627 6.55398 86.5536 6.38352C86.1445 6.21307 85.8292 5.97585 85.6076 5.67188C85.386 5.36506 85.2766 5.00852 85.2795 4.60227C85.2766 4.17614 85.386 3.80256 85.6076 3.48153C85.8292 3.15767 86.146 2.90625 86.5579 2.72727C86.9727 2.54545 87.4613 2.45455 88.0238 2.45455H90.9428V9H89.2511ZM85.092 9L86.9116 5.59091H88.646L86.8306 9H85.092ZM5.20739 17.4545V18.8821H2.48864V24H0.724432V17.4545H5.20739ZM7.94638 24.1236C7.52876 24.1236 7.15661 24.0511 6.8299 23.9062C6.5032 23.7585 6.24467 23.5412 6.05433 23.2543C5.86683 22.9645 5.77308 22.6037 5.77308 22.1719C5.77308 21.8082 5.83984 21.5028 5.97337 21.2557C6.10689 21.0085 6.28871 20.8097 6.51882 20.6591C6.74893 20.5085 7.0103 20.3949 7.30291 20.3182C7.59837 20.2415 7.90803 20.1875 8.23189 20.1562C8.61257 20.1165 8.91939 20.0795 9.15234 20.0455C9.3853 20.0085 9.55433 19.9545 9.65945 19.8835C9.76456 19.8125 9.81712 19.7074 9.81712 19.5682V19.5426C9.81712 19.2727 9.73189 19.0639 9.56143 18.9162C9.39382 18.7685 9.15518 18.6946 8.84553 18.6946C8.51882 18.6946 8.25888 18.767 8.0657 18.9119C7.87251 19.054 7.74467 19.233 7.68217 19.4489L6.0032 19.3125C6.08842 18.9148 6.25604 18.571 6.50604 18.2812C6.75604 17.9886 7.07848 17.7642 7.47337 17.608C7.87109 17.4489 8.33132 17.3693 8.85405 17.3693C9.21768 17.3693 9.5657 17.4119 9.89808 17.4972C10.2333 17.5824 10.5302 17.7145 10.7887 17.8935C11.0501 18.0724 11.256 18.3026 11.4066 18.5838C11.5572 18.8622 11.6325 19.196 11.6325 19.5852V24H9.91087V23.0923H9.85973C9.75462 23.2969 9.61399 23.4773 9.43786 23.6335C9.26172 23.7869 9.05007 23.9077 8.80291 23.9957C8.55575 24.081 8.27024 24.1236 7.94638 24.1236ZM8.46626 22.8707C8.73331 22.8707 8.96911 22.8182 9.17365 22.7131C9.3782 22.6051 9.53871 22.4602 9.65518 22.2784C9.77166 22.0966 9.8299 21.8906 9.8299 21.6605V20.9659C9.77308 21.0028 9.69496 21.0369 9.59553 21.0682C9.49893 21.0966 9.38956 21.1236 9.2674 21.1491C9.14524 21.1719 9.02308 21.1932 8.90092 21.2131C8.77876 21.2301 8.66797 21.2457 8.56854 21.2599C8.35547 21.2912 8.16939 21.3409 8.0103 21.4091C7.85121 21.4773 7.72763 21.5696 7.63956 21.6861C7.55149 21.7997 7.50746 21.9418 7.50746 22.1122C7.50746 22.3594 7.59695 22.5483 7.77592 22.679C7.95774 22.8068 8.18786 22.8707 8.46626 22.8707ZM12.6573 24L12.6488 22.5597H12.8661C13.0195 22.5597 13.1516 22.5227 13.2624 22.4489C13.3761 22.3722 13.4698 22.2486 13.5437 22.0781C13.6175 21.9077 13.6758 21.6818 13.7184 21.4006C13.761 21.1165 13.7894 20.767 13.8036 20.3523L13.9102 17.4545H18.8874V24H17.1573V18.8821H15.5423L15.44 20.8807C15.4144 21.429 15.3477 21.9006 15.2397 22.2955C15.1346 22.6903 14.9883 23.0142 14.8008 23.267C14.6133 23.517 14.3874 23.7017 14.1232 23.821C13.859 23.9403 13.5522 24 13.2028 24H12.6573ZM23.2777 24.1278C22.6044 24.1278 22.0249 23.9915 21.5391 23.7188C21.0561 23.4432 20.6839 23.054 20.4226 22.5511C20.1612 22.0455 20.0305 21.4474 20.0305 20.7571C20.0305 20.0838 20.1612 19.4929 20.4226 18.9844C20.6839 18.4759 21.0518 18.0795 21.5263 17.7955C22.0036 17.5114 22.5632 17.3693 23.2053 17.3693C23.6371 17.3693 24.0391 17.4389 24.4112 17.5781C24.7862 17.7145 25.1129 17.9205 25.3913 18.196C25.6726 18.4716 25.8913 18.8182 26.0476 19.2358C26.2038 19.6506 26.282 20.1364 26.282 20.6932V21.1918H20.755V20.0668H24.5732C24.5732 19.8054 24.5163 19.5739 24.4027 19.3722C24.2891 19.1705 24.1314 19.0128 23.9297 18.8991C23.7308 18.7827 23.4993 18.7244 23.2351 18.7244C22.9595 18.7244 22.7152 18.7884 22.5021 18.9162C22.2919 19.0412 22.1271 19.2102 22.0078 19.4233C21.8885 19.6335 21.8274 19.8679 21.8246 20.1264V21.196C21.8246 21.5199 21.8842 21.7997 22.0036 22.0355C22.1257 22.2713 22.2976 22.4531 22.5192 22.581C22.7408 22.7088 23.0036 22.7727 23.3075 22.7727C23.5092 22.7727 23.6939 22.7443 23.8615 22.6875C24.0291 22.6307 24.1726 22.5455 24.2919 22.4318C24.4112 22.3182 24.5021 22.179 24.5646 22.0142L26.2436 22.125C26.1584 22.5284 25.9837 22.8807 25.7195 23.1818C25.4581 23.4801 25.12 23.7131 24.7053 23.8807C24.2933 24.0455 23.8175 24.1278 23.2777 24.1278ZM27.4666 26.4545V17.4545H29.2564V18.554H29.3374C29.4169 18.3778 29.532 18.1989 29.6825 18.017C29.8359 17.8324 30.0348 17.679 30.2791 17.5568C30.5263 17.4318 30.8331 17.3693 31.1996 17.3693C31.6768 17.3693 32.1172 17.4943 32.5206 17.7443C32.924 17.9915 33.2464 18.3651 33.4879 18.8651C33.7294 19.3622 33.8501 19.9858 33.8501 20.7358C33.8501 21.4659 33.7322 22.0824 33.4964 22.5852C33.2635 23.0852 32.9453 23.4645 32.5419 23.723C32.1413 23.9787 31.6925 24.1065 31.1953 24.1065C30.843 24.1065 30.5433 24.0483 30.2962 23.9318C30.0518 23.8153 29.8516 23.669 29.6953 23.4929C29.5391 23.3139 29.4197 23.1335 29.3374 22.9517H29.282V26.4545H27.4666ZM29.2436 20.7273C29.2436 21.1165 29.2976 21.456 29.4055 21.7457C29.5135 22.0355 29.6697 22.2614 29.8743 22.4233C30.0788 22.5824 30.3274 22.6619 30.62 22.6619C30.9155 22.6619 31.1655 22.581 31.37 22.419C31.5746 22.2543 31.7294 22.027 31.8345 21.7372C31.9425 21.4446 31.9964 21.108 31.9964 20.7273C31.9964 20.3494 31.9439 20.017 31.8388 19.7301C31.7337 19.4432 31.5788 19.2187 31.3743 19.0568C31.1697 18.8949 30.9183 18.8139 30.62 18.8139C30.3246 18.8139 30.0746 18.892 29.87 19.0483C29.6683 19.2045 29.5135 19.4261 29.4055 19.7131C29.2976 20 29.2436 20.3381 29.2436 20.7273ZM38.0433 24.1278C37.37 24.1278 36.7905 23.9915 36.3047 23.7188C35.8217 23.4432 35.4496 23.054 35.1882 22.5511C34.9268 22.0455 34.7962 21.4474 34.7962 20.7571C34.7962 20.0838 34.9268 19.4929 35.1882 18.9844C35.4496 18.4759 35.8175 18.0795 36.2919 17.7955C36.7692 17.5114 37.3288 17.3693 37.9709 17.3693C38.4027 17.3693 38.8047 17.4389 39.1768 17.5781C39.5518 17.7145 39.8786 17.9205 40.157 18.196C40.4382 18.4716 40.657 18.8182 40.8132 19.2358C40.9695 19.6506 41.0476 20.1364 41.0476 20.6932V21.1918H35.5206V20.0668H39.3388C39.3388 19.8054 39.282 19.5739 39.1683 19.3722C39.0547 19.1705 38.897 19.0128 38.6953 18.8991C38.4964 18.7827 38.2649 18.7244 38.0007 18.7244C37.7251 18.7244 37.4808 18.7884 37.2678 18.9162C37.0575 19.0412 36.8928 19.2102 36.7734 19.4233C36.6541 19.6335 36.593 19.8679 36.5902 20.1264V21.196C36.5902 21.5199 36.6499 21.7997 36.7692 22.0355C36.8913 22.2713 37.0632 22.4531 37.2848 22.581C37.5064 22.7088 37.7692 22.7727 38.0732 22.7727C38.2749 22.7727 38.4595 22.7443 38.6271 22.6875C38.7947 22.6307 38.9382 22.5455 39.0575 22.4318C39.1768 22.3182 39.2678 22.179 39.3303 22.0142L41.0092 22.125C40.924 22.5284 40.7493 22.8807 40.4851 23.1818C40.2237 23.4801 39.8857 23.7131 39.4709 23.8807C39.0589 24.0455 38.5831 24.1278 38.0433 24.1278ZM46.0675 24V18.8778H44.8402C44.5078 18.8778 44.255 18.9545 44.0817 19.108C43.9084 19.2614 43.8232 19.4432 43.826 19.6534C43.8232 19.8665 43.9055 20.0469 44.0732 20.1946C44.2436 20.3395 44.4936 20.4119 44.8232 20.4119H46.6726V21.6392H44.8232C44.2635 21.6392 43.7791 21.554 43.37 21.3835C42.9609 21.2131 42.6456 20.9759 42.424 20.6719C42.2024 20.3651 42.093 20.0085 42.0959 19.6023C42.093 19.1761 42.2024 18.8026 42.424 18.4815C42.6456 18.1577 42.9624 17.9062 43.3743 17.7273C43.7891 17.5455 44.2777 17.4545 44.8402 17.4545H47.7592V24H46.0675ZM41.9084 24L43.728 20.5909H45.4624L43.647 24H41.9084Z" fill="white"/>
</svg>
