<svg width="800" height="800" viewBox="0 0 800 800" fill="none" xmlns="http://www.w3.org/2000/svg">
<path d="M400 433.333C455.228 433.333 500 388.562 500 333.333C500 278.105 455.228 233.333 400 233.333C344.772 233.333 300 278.105 300 333.333C300 388.562 344.772 433.333 400 433.333Z" stroke="white" stroke-width="66.6667" stroke-linecap="round"/>
<path d="M400 700C565.685 700 700 565.685 700 400C700 234.315 565.685 100 400 100C234.315 100 100 234.315 100 400C100 565.685 234.315 700 400 700Z" stroke="white" stroke-width="66.6667"/>
<path d="M592.683 627.547C596.92 625.22 598.927 620.183 597.133 615.693C584.28 583.483 559.52 555.113 526.047 534.44C489.887 512.107 445.58 500 400 500C354.42 500 310.114 512.107 273.953 534.44C240.481 555.113 215.72 583.483 202.866 615.693C201.074 620.183 203.079 625.22 207.316 627.547C327.324 693.433 472.677 693.433 592.683 627.547Z" fill="white"/>
</svg>
